<?xml version="1.0" encoding="UTF-8" standalone="no"?>
<svg
   xmlns:dc="http://purl.org/dc/elements/1.1/"
   xmlns:cc="http://creativecommons.org/ns#"
   xmlns:rdf="http://www.w3.org/1999/02/22-rdf-syntax-ns#"
   xmlns:svg="http://www.w3.org/2000/svg"
   xmlns="http://www.w3.org/2000/svg"
   xmlns:sodipodi="http://sodipodi.sourceforge.net/DTD/sodipodi-0.dtd"
   xmlns:inkscape="http://www.inkscape.org/namespaces/inkscape"
   version="1.1"
   x="0px"
   y="0px"
   viewBox="0 0 99.999999 99.999999"
   enable-background="new 0 0 99.999 91.984"
   xml:space="preserve"
   id="svg2"
   inkscape:version="0.91 r13725"
   sodipodi:docname="TouchButton.svg"
   width="100"
   height="100"
   inkscape:export-filename="C:\dev\web\cs\csWeb\dist-bower\images\widgets\TouchButton.png"
   inkscape:export-xdpi="43.200001"
   inkscape:export-ydpi="43.200001"><metadata
     id="metadata22"><rdf:RDF><cc:Work
         rdf:about=""><dc:format>image/svg+xml</dc:format><dc:type
           rdf:resource="http://purl.org/dc/dcmitype/StillImage" /><dc:title></dc:title></cc:Work></rdf:RDF></metadata><defs
     id="defs20" /><sodipodi:namedview
     pagecolor="#ffffff"
     bordercolor="#666666"
     borderopacity="1"
     objecttolerance="10"
     gridtolerance="10"
     guidetolerance="10"
     inkscape:pageopacity="0"
     inkscape:pageshadow="2"
     inkscape:window-width="1600"
     inkscape:window-height="821"
     id="namedview18"
     showgrid="false"
     inkscape:zoom="2.5656636"
     inkscape:cx="49.9995"
     inkscape:cy="45.992001"
     inkscape:window-x="-9"
     inkscape:window-y="-9"
     inkscape:window-maximized="1"
     inkscape:current-layer="svg2" /><path
     d="m 75.465322,59.676457 c 0,-3.459 -2.813,-6.272 -6.271,-6.272 l -0.122,0 c -0.866,-2.425 -3.166,-4.181 -5.888,-4.181 -0.128,0 -0.24,0.053 -0.363,0.073 -0.843,-2.466 -3.16,-4.255 -5.908,-4.255 -0.736,0 -1.433,0.151 -2.09,0.389 l 0,-12.931 c 0,-3.458 -2.813,-6.271 -6.271,-6.271 -3.458,0 -6.272,2.813 -6.272,6.271 l 0,18.705 -0.662,0.221 c -0.788,0.261 -7.701,2.723 -7.701,8.252 0,0.519 -0.078,1.425 -0.165,2.519 -0.382,4.749 -0.619,8.849 0.367,10.923 1.456,3.059 6.386,8.48 8.16,10.383 l 0,7.534001 4.181,0 0,-8.362001 c 0,-0.535 -0.206,-1.054 -0.576,-1.441 -1.821,-1.911 -6.805,-7.419 -7.989,-9.906 -0.586,-1.232 -0.159,-6.528 0.022,-8.791 0.1,-1.245 0.18,-2.273 0.18,-2.857 0,-1.854 2.636,-3.365 4.181,-4.026 l 0,3.977 c -0.002,0.058 -0.083,1.36 -1.478,2.753 -0.816,0.816 -0.816,2.139 0,2.956 0.408,0.408 0.943,0.612 1.478,0.612 0.535,0 1.07,-0.204 1.478,-0.612 2.627,-2.626 2.703,-5.357 2.703,-5.659 l 0,-27.181 c 0,-1.151 0.937,-2.091 2.091,-2.091 1.153,0 2.09,0.939 2.09,2.091 l 0,18.815 0,8.362 c 0,1.155 0.935,2.09 2.091,2.09 1.155,0 2.09,-0.935 2.09,-2.09 l 0,-8.362 c 0,-1.151 0.937,-2.091 2.09,-2.091 1.153,0 2.091,0.939 2.091,2.091 l 0,8.362 c 0,1.155 0.935,2.09 2.091,2.09 1.155,0 2.09,-0.935 2.09,-2.09 l 0,-6.272 c 1.154,0 2.091,0.939 2.091,2.091 l 0,6.271 c 0,1.156 0.936,2.091 2.09,2.091 1.155,0 2.091,-0.935 2.091,-2.091 l 0,-4.128 c 1.024,0.135 1.829,0.988 1.833,2.148 0.159,3.005 0.474,11.408 0.024,14.188 -0.236,1.462 -3.104,4.765 -7.234,6.827 -0.708,0.355 -1.155,1.078 -1.155,1.87 l 0,8.362 4.18,0 0,-7.113 c 3.908,-2.241 7.791,-5.925 8.338,-9.276 0.604,-3.723 0.086,-13.926 0.024,-14.968 z"
     id="path4"
     inkscape:connector-curvature="0"
     style="fill:#000000" /><path
     d="m 48.551322,22.046457 c -1.156,0 -2.091,-0.935 -2.091,-2.091 l 0,-8.362 c 0,-1.155 0.935,-2.0900005 2.091,-2.0900005 1.155,0 2.09,0.9350005 2.09,2.0900005 l 0,8.362 c 0,1.156 -0.935,2.091 -2.09,2.091 z"
     id="path8"
     inkscape:connector-curvature="0"
     style="fill:#000000" /><path
     d="m 56.913322,26.227457 c -0.535,0 -1.069,-0.204 -1.478,-0.612 -0.817,-0.817 -0.817,-2.14 0,-2.957 l 6.271,-6.271 c 0.816,-0.817 2.14,-0.817 2.956,0 0.816,0.816 0.816,2.139 0,2.956 l -6.271,6.272 c -0.408,0.408 -0.943,0.612 -1.478,0.612 z"
     id="path10"
     inkscape:connector-curvature="0"
     style="fill:#000000" /><path
     d="m 40.189322,26.227457 c -0.535,0 -1.07,-0.204 -1.478,-0.612 l -6.272,-6.272 c -0.816,-0.817 -0.816,-2.14 0,-2.956 0.817,-0.817 2.14,-0.817 2.956,0 l 6.272,6.271 c 0.816,0.817 0.816,2.139 0,2.957 -0.409,0.408 -0.944,0.612 -1.478,0.612 z"
     id="path12"
     inkscape:connector-curvature="0"
     style="fill:#000000" /><path
     d="m 67.365322,34.590457 -6.271,0 c -1.156,0 -2.091,-0.936 -2.091,-2.091 0,-1.155 0.935,-2.091 2.091,-2.091 l 6.271,0 c 1.155,0 2.091,0.936 2.091,2.091 0,1.155 -0.936,2.091 -2.091,2.091 z"
     id="path14"
     inkscape:connector-curvature="0"
     style="fill:#000000" /><path
     d="m 36.007322,34.590457 -6.272,0 c -1.155,0 -2.09,-0.936 -2.09,-2.091 0,-1.155 0.935,-2.091 2.09,-2.091 l 6.272,0 c 1.155,0 2.09,0.936 2.09,2.091 0,1.155 -0.934,2.091 -2.09,2.091 z"
     id="path16"
     inkscape:connector-curvature="0"
     style="fill:#000000" /></svg>