<?xml version="1.0" encoding="UTF-8" standalone="no"?>
<svg
   xmlns:dc="http://purl.org/dc/elements/1.1/"
   xmlns:cc="http://creativecommons.org/ns#"
   xmlns:rdf="http://www.w3.org/1999/02/22-rdf-syntax-ns#"
   xmlns:svg="http://www.w3.org/2000/svg"
   xmlns="http://www.w3.org/2000/svg"
   xmlns:sodipodi="http://sodipodi.sourceforge.net/DTD/sodipodi-0.dtd"
   xmlns:inkscape="http://www.inkscape.org/namespaces/inkscape"
   version="1.1"
   x="0px"
   y="0px"
   viewBox="0 0 100 100"
   enable-background="new 0 0 100 100"
   xml:space="preserve"
   id="svg2"
   inkscape:version="0.91 r13725"
   sodipodi:docname="large-marker.svg"
   inkscape:export-filename="C:\dev\web\cs\csWeb\csComp\includes\images\large-marker.png"
   inkscape:export-xdpi="28.799999"
   inkscape:export-ydpi="28.799999"><metadata
     id="metadata126"><rdf:RDF><cc:Work
         rdf:about=""><dc:format>image/svg+xml</dc:format><dc:type
           rdf:resource="http://purl.org/dc/dcmitype/StillImage" /></cc:Work></rdf:RDF></metadata><defs
     id="defs124" /><sodipodi:namedview
     pagecolor="#ffffff"
     bordercolor="#666666"
     borderopacity="1"
     objecttolerance="10"
     gridtolerance="10"
     guidetolerance="10"
     inkscape:pageopacity="0"
     inkscape:pageshadow="2"
     inkscape:window-width="1600"
     inkscape:window-height="871"
     id="namedview122"
     showgrid="false"
     inkscape:zoom="2.36"
     inkscape:cx="4.2372881"
     inkscape:cy="50"
     inkscape:window-x="-9"
     inkscape:window-y="-9"
     inkscape:window-maximized="1"
     inkscape:current-layer="svg2" /><g
     id="g114"><g
       id="g116"><path
         d="M61.25,64.955l-1.521,1.48c11.25,1.257,19.103,4.978,19.103,9.74C78.831,82.374,66.229,88,49.023,88    c-0.008,0-0.016,0-0.023,0s-0.016,0-0.023,0c-17.206,0-29.808-5.626-29.808-11.824c0-4.763,7.853-8.483,19.103-9.74l-1.521-1.48    c-15.146,1.5-24.003,6.339-24.003,13.817c0,10.088,16.226,17.059,36.253,17.059s36.253-6.971,36.253-17.059    C85.253,71.294,76.396,66.455,61.25,64.955z"
         id="path118" /><path
         d="M49,80.354c0.005,0.008,0.023,0.036,0.023,0.036s24.224-37.171,24.224-49.393C73.247,13.015,60.97,5.191,49,5.166    c-11.97,0.025-24.247,7.849-24.247,25.831c0,12.221,24.224,49.393,24.224,49.393S48.995,80.361,49,80.354z M40.602,29.983    c0-4.638,3.76-8.398,8.398-8.398c4.639,0,8.398,3.76,8.398,8.398s-3.76,8.398-8.398,8.398    C44.362,38.382,40.602,34.622,40.602,29.983z"
         id="path120" /></g></g></svg>