<?xml version="1.0" encoding="UTF-8" standalone="no"?>
<!-- Created with Inkscape (http://www.inkscape.org/) -->

<svg
   xmlns:dc="http://purl.org/dc/elements/1.1/"
   xmlns:cc="http://creativecommons.org/ns#"
   xmlns:rdf="http://www.w3.org/1999/02/22-rdf-syntax-ns#"
   xmlns:svg="http://www.w3.org/2000/svg"
   xmlns="http://www.w3.org/2000/svg"
   xmlns:sodipodi="http://sodipodi.sourceforge.net/DTD/sodipodi-0.dtd"
   xmlns:inkscape="http://www.inkscape.org/namespaces/inkscape"
   width="100"
   height="100"
   id="svg2"
   version="1.1"
   inkscape:version="0.48.4 r9939"
   sodipodi:docname="plot_gaussian_valley.svg"
   inkscape:export-filename="C:\dev\web\cs\csWeb\csComp\includes\images\plot_gaussian_valley.png"
   inkscape:export-xdpi="27"
   inkscape:export-ydpi="27">
  <defs
     id="defs4" />
  <sodipodi:namedview
     id="base"
     pagecolor="#ffffff"
     bordercolor="#666666"
     borderopacity="1.0"
     inkscape:pageopacity="0.0"
     inkscape:pageshadow="2"
     inkscape:zoom="9.6537289"
     inkscape:cx="51.714623"
     inkscape:cy="52.23225"
     inkscape:document-units="px"
     inkscape:current-layer="layer1"
     showgrid="false"
     inkscape:window-width="1600"
     inkscape:window-height="871"
     inkscape:window-x="-9"
     inkscape:window-y="-9"
     inkscape:window-maximized="1" />
  <metadata
     id="metadata7">
    <rdf:RDF>
      <cc:Work
         rdf:about="">
        <dc:format>image/svg+xml</dc:format>
        <dc:type
           rdf:resource="http://purl.org/dc/dcmitype/StillImage" />
        <dc:title />
      </cc:Work>
    </rdf:RDF>
  </metadata>
  <g
     inkscape:label="Layer 1"
     inkscape:groupmode="layer"
     id="layer1"
     transform="translate(0,-952.36218)">
    <path
       style="font-size:medium;font-style:normal;font-variant:normal;font-weight:normal;font-stretch:normal;text-indent:0;text-align:start;text-decoration:none;line-height:normal;letter-spacing:normal;word-spacing:normal;text-transform:none;direction:ltr;block-progression:tb;writing-mode:lr-tb;text-anchor:start;baseline-shift:baseline;color:#000000;fill:#000000;fill-opacity:1;stroke:none;stroke-width:4.91115856;marker:none;visibility:visible;display:inline;overflow:visible;enable-background:accumulate;font-family:Sans;-inkscape-font-specification:Sans"
       d="m 0.4375,968.15625 0,63.96875 0,2.4375 2.4375,0 97.65625,0 0,-4.9063 -95.1875,0 0,-61.49995 -4.90625,0 z"
       id="path4877"
       inkscape:connector-curvature="0" />
    <path
       style="font-size:medium;font-style:normal;font-variant:normal;font-weight:normal;font-stretch:normal;text-indent:0;text-align:start;text-decoration:none;line-height:normal;letter-spacing:normal;word-spacing:normal;text-transform:none;direction:ltr;block-progression:tb;writing-mode:lr-tb;text-anchor:start;baseline-shift:baseline;color:#000000;fill:#000000;fill-opacity:1;stroke:none;stroke-width:5.83128691;marker:none;visibility:visible;display:inline;overflow:visible;enable-background:accumulate;font-family:Sans;-inkscape-font-specification:Sans"
       d="M 8.59375,971.0625 A 2.915935,2.915935 0 0 0 8.25,976.875 c 4.791308,0.75103 9.652913,0.98452 13.90625,2.1875 4.221379,1.19394 7.812186,3.16824 10.78125,7.5625 0.02248,0.0333 0.04009,0.0602 0.0625,0.0937 5.712022,9.24534 5.778615,23.89835 12.15625,35.53125 l 0.1875,0.3438 0.28125,0.2812 c 2.23321,2.2848 5.011775,3.5095 7.625,2.9688 2.613225,-0.5408 4.371999,-2.4015 5.6875,-4.4063 2.558198,-3.8987 3.85709,-9.062 4.46875,-13.1563 l 0.03125,0 c 1.47711,-5.3543 2.708722,-11.16203 4.53125,-16.0312 1.822528,-4.86917 4.171841,-8.60599 7.375,-10.40625 l 0.125,-0.0625 0.09375,-0.0937 c 5.877033,-4.06738 12.930896,-3.81281 20.625,-4.8125 a 2.915935,2.915935 0 1 0 -0.75,-5.78125 c -6.926006,0.89989 -15.308764,0.53848 -22.9375,5.6875 L 72.46875,976.75 c -0.06741,0.0379 -0.120867,0.0863 -0.1875,0.125 -0.01225,0.008 -0.019,0.0228 -0.03125,0.0312 -4.906846,2.86765 -7.710118,7.91488 -9.71875,13.28125 -2.041139,5.45322 -3.308511,11.4193 -4.71875,16.5313 l -0.0625,0.1874 -0.03125,0.1876 c -0.494175,3.4914 -1.93275,8.5296 -3.65625,11.1562 -0.86175,1.3133 -1.675928,1.8392 -2,1.9062 -0.295222,0.061 -0.842407,-0.032 -2,-1.125 -5.09985,-9.6869 -5.153147,-24.28415 -12.15625,-35.49995 L 37.875,983.5 37.84375,983.46875 C 34.044189,977.77996 28.870522,974.917 23.75,973.46875 18.629478,972.0205 13.499948,971.80587 9.15625,971.125 a 2.915935,2.915935 0 0 0 -0.5625,-0.0625 z"
       id="path4932"
       inkscape:connector-curvature="0" />
  </g>
</svg>
