<?xml version="1.0" encoding="UTF-8" standalone="no"?>
<!-- Created with Inkscape (http://www.inkscape.org/) -->

<svg
   xmlns:dc="http://purl.org/dc/elements/1.1/"
   xmlns:cc="http://creativecommons.org/ns#"
   xmlns:rdf="http://www.w3.org/1999/02/22-rdf-syntax-ns#"
   xmlns:svg="http://www.w3.org/2000/svg"
   xmlns="http://www.w3.org/2000/svg"
   xmlns:sodipodi="http://sodipodi.sourceforge.net/DTD/sodipodi-0.dtd"
   xmlns:inkscape="http://www.inkscape.org/namespaces/inkscape"
   width="100"
   height="100"
   id="svg2990"
   version="1.1"
   inkscape:version="0.48.4 r9939"
   sodipodi:docname="User Intermediate.svg"
   inkscape:export-filename="\\tsn.tno.nl\Data\Users\vullingshjlm\Home\Pictures\User Intermediate.png"
   inkscape:export-xdpi="28.799999"
   inkscape:export-ydpi="28.799999">
  <defs
     id="defs2992" />
  <sodipodi:namedview
     id="base"
     pagecolor="#ffffff"
     bordercolor="#666666"
     borderopacity="1.0"
     inkscape:pageopacity="0.0"
     inkscape:pageshadow="2"
     inkscape:zoom="5.3679315"
     inkscape:cx="52.602939"
     inkscape:cy="52.006806"
     inkscape:document-units="px"
     inkscape:current-layer="layer1"
     showgrid="false"
     inkscape:window-width="910"
     inkscape:window-height="691"
     inkscape:window-x="481"
     inkscape:window-y="137"
     inkscape:window-maximized="0" />
  <metadata
     id="metadata2995">
    <rdf:RDF>
      <cc:Work
         rdf:about="">
        <dc:format>image/svg+xml</dc:format>
        <dc:type
           rdf:resource="http://purl.org/dc/dcmitype/StillImage" />
        <dc:title></dc:title>
      </cc:Work>
    </rdf:RDF>
  </metadata>
  <g
     inkscape:label="Layer 1"
     inkscape:groupmode="layer"
     id="layer1"
     transform="translate(0,-952.36218)">
    <g
       transform="matrix(0.45780051,0,0,0.45780051,-21.1867,953.05783)"
       id="g4"
       style="fill:#000000">
      <g
         transform="translate(59,66.21322)"
         id="g6"
         style="fill:#000000">
        <path
           inkscape:connector-curvature="0"
           id="path1"
           height="138"
           width="138"
           transform="scale(3.642122,3.642122)"
           d="m 25.5488,15.953 c 5.727199,2.394637 10.280698,7.812621 12.341199,14.672128 -19.5984,7.433717 -37.889999,0 -37.889999,0 2.02934,-6.756405 6.4758701,-12.115888 12.08,-14.564225 1.3444,2.308635 3.8387,3.863358 6.7019,3.863358 2.9082,0 5.4394,-1.602524 6.7669,-3.971261 z M 18.945,0 c 4.283689,0 7.757,3.4726152 7.757,7.7562504 0,4.2850946 -3.473311,7.7577496 -7.757,7.7577496 -4.28379,0 -7.757,-3.472655 -7.757,-7.7577496 C 11.188,3.4726152 14.66121,0 18.945,0 z"
           style="fill:#000000" />
      </g>
    </g>
    <path
       style="fill:#000000"
       d="m 64.149726,960.76843 0,42.24997 10.5625,0 0,-42.24997 -10.5625,0 z m 1.125,3.28125 8.34375,0 0,1.84375 -8.34375,0 0,-1.84375 z m 23.34375,3.15625 -11.40625,1.84375 5.4375,33.96872 11.375,-1.8437 -5.40625,-33.96877 z m -0.875,1.96875 0.3125,1.8125 -9.25,1.5625 -0.3125,-1.8125 9.25,-1.5625 z m 4.6875,27.9375 0.3125,1.8125 -9.25,1.56252 -0.28125,-1.81252 9.21875,-1.5625 z m -27.15625,1.21875 8.34375,0 0,1.84377 -8.34375,0 0,-1.84377 z"
       id="path1-0"
       inkscape:connector-curvature="0" />
    <rect
       style="fill:none;stroke:#000000;stroke-width:2.43051434;stroke-linecap:round;stroke-linejoin:miter;stroke-miterlimit:4;stroke-opacity:1;stroke-dasharray:none"
       id="rect3033"
       width="43.157719"
       height="1.9812505"
       x="55.009373"
       y="1006.1951" />
  </g>
</svg>
