{"accessors":{"accessor_100":{"bufferView":"bufferView_215","byteOffset":11352,"byteStride":12,"componentType":5126,"count":10,"max":[0,0,1],"min":[0,0,-1],"type":"VEC3"},"accessor_116":{"bufferView":"bufferView_214","byteOffset":3978,"byteStride":0,"componentType":5123,"count":18,"type":"SCALAR"},"accessor_118":{"bufferView":"bufferView_215","byteOffset":11472,"byteStride":12,"componentType":5126,"count":10,"max":[1.80054,-0.00316573,1.81638],"min":[-2.48729,-4.35442,1.81638],"type":"VEC3"},"accessor_120":{"bufferView":"bufferView_215","byteOffset":11592,"byteStride":12,"componentType":5126,"count":10,"max":[0,0,1],"min":[0,0,-1],"type":"VEC3"},"accessor_136":{"bufferView":"bufferView_214","byteOffset":4014,"byteStride":0,"componentType":5123,"count":18,"type":"SCALAR"},"accessor_138":{"bufferView":"bufferView_215","byteOffset":11712,"byteStride":12,"componentType":5126,"count":10,"max":[3.11818,-0.0085548,5.68947],"min":[3.11818,-5.51485,2.76253],"type":"VEC3"},"accessor_140":{"bufferView":"bufferView_215","byteOffset":11832,"byteStride":12,"componentType":5126,"count":10,"max":[1,5.56525e-17,1.67663e-16],"min":[-1,-5.56525e-17,-1.67663e-16],"type":"VEC3"},"accessor_156":{"bufferView":"bufferView_214","byteOffset":4050,"byteStride":0,"componentType":5123,"count":12,"type":"SCALAR"},"accessor_158":{"bufferView":"bufferView_215","byteOffset":11952,"byteStride":12,"componentType":5126,"count":8,"max":[1.80054,5.68643,1.81638],"min":[-10.2137,1.17952,0.141568],"type":"VEC3"},"accessor_16":{"bufferView":"bufferView_214","byteOffset":864,"byteStride":0,"componentType":5123,"count":1467,"type":"SCALAR"},"accessor_160":{"bufferView":"bufferView_215","byteOffset":12048,"byteStride":12,"componentType":5126,"count":8,"max":[0.138068,0,0.990423],"min":[-0.138068,0,-0.990423],"type":"VEC3"},"accessor_176":{"bufferView":"bufferView_214","byteOffset":4074,"byteStride":0,"componentType":5123,"count":72,"type":"SCALAR"},"accessor_178":{"bufferView":"bufferView_215","byteOffset":12144,"byteStride":12,"componentType":5126,"count":26,"max":[4.43578,5.68643,3.134],"min":[1.80054,5.68643,0.498757],"type":"VEC3"},"accessor_18":{"bufferView":"bufferView_215","byteOffset":3384,"byteStride":12,"componentType":5126,"count":301,"max":[4.43672,12.0364,3.134],"min":[1.80054,-6.35,0.496522],"type":"VEC3"},"accessor_180":{"bufferView":"bufferView_215","byteOffset":12456,"byteStride":12,"componentType":5126,"count":26,"max":[0,1,0],"min":[0,1,0],"type":"VEC3"},"accessor_196":{"bufferView":"bufferView_214","byteOffset":4218,"byteStride":0,"componentType":5123,"count":12,"type":"SCALAR"},"accessor_198":{"bufferView":"bufferView_215","byteOffset":12768,"byteStride":12,"componentType":5126,"count":8,"max":[16.45,5.68643,1.81638],"min":[4.43578,1.17952,0.141568],"type":"VEC3"},"accessor_20":{"bufferView":"bufferView_215","byteOffset":6996,"byteStride":12,"componentType":5126,"count":301,"max":[1,0.969346,1],"min":[-1,-0.896161,-1],"type":"VEC3"},"accessor_200":{"bufferView":"bufferView_215","byteOffset":12864,"byteStride":12,"componentType":5126,"count":8,"max":[0.138068,0,0.990423],"min":[-0.138068,0,-0.990423],"type":"VEC3"},"accessor_210":{"bufferView":"bufferView_214","byteOffset":4242,"byteStride":0,"componentType":5123,"count":2,"type":"SCALAR"},"accessor_212":{"bufferView":"bufferView_215","byteOffset":12960,"byteStride":12,"componentType":5126,"count":2,"max":[3.11909,0,3.13177],"min":[3.11909,-2.9718,3.13177],"type":"VEC3"},"accessor_36":{"bufferView":"bufferView_214","byteOffset":0,"byteStride":0,"componentType":5123,"count":183,"type":"SCALAR"},"accessor_38":{"bufferView":"bufferView_215","byteOffset":0,"byteStride":12,"componentType":5126,"count":45,"max":[4.39181,11.2154,3.13177],"min":[1.84637,-3.60957e-16,2.05903],"type":"VEC3"},"accessor_40":{"bufferView":"bufferView_215","byteOffset":540,"byteStride":12,"componentType":5126,"count":45,"max":[0.965926,0.329474,1],"min":[-0.965926,-1.00501e-17,0.249652],"type":"VEC3"},"accessor_56":{"bufferView":"bufferView_214","byteOffset":366,"byteStride":0,"componentType":5123,"count":249,"type":"SCALAR"},"accessor_58":{"bufferView":"bufferView_215","byteOffset":1080,"byteStride":12,"componentType":5126,"count":96,"max":[3.72857,-2.97498,1.85924],"min":[2.50777,-6.35,1.77352],"type":"VEC3"},"accessor_60":{"bufferView":"bufferView_215","byteOffset":2232,"byteStride":12,"componentType":5126,"count":96,"max":[0.991445,1.27603e-20,0.991445],"min":[-0.991445,-1,-1],"type":"VEC3"},"accessor_76":{"bufferView":"bufferView_214","byteOffset":3798,"byteStride":0,"componentType":5123,"count":72,"type":"SCALAR"},"accessor_78":{"bufferView":"bufferView_215","byteOffset":10608,"byteStride":12,"componentType":5126,"count":26,"max":[4.43672,0,3.13177],"min":[1.80147,-3.60957e-16,0.496522],"type":"VEC3"},"accessor_80":{"bufferView":"bufferView_215","byteOffset":10920,"byteStride":12,"componentType":5126,"count":26,"max":[-2.0703e-18,-1,4.99814e-18],"min":[-2.0703e-18,-1,4.99814e-18],"type":"VEC3"},"accessor_96":{"bufferView":"bufferView_214","byteOffset":3942,"byteStride":0,"componentType":5123,"count":18,"type":"SCALAR"},"accessor_98":{"bufferView":"bufferView_215","byteOffset":11232,"byteStride":12,"componentType":5126,"count":10,"max":[8.72363,-0.00316573,1.81638],"min":[4.43578,-4.35442,1.81638],"type":"VEC3"}},"animations":{},"asset":{"generator":"collada2gltf@","premultipliedAlpha":true,"profile":"WebGL 1.0.2","version":0.8},"bufferViews":{"bufferView_214":{"buffer":"model","byteLength":4248,"byteOffset":0,"target":34963},"bufferView_215":{"buffer":"model","byteLength":12984,"byteOffset":4248,"target":34962}},"buffers":{"model":{"byteLength":17232,"type":"arraybuffer","uri":"data:application/octet-stream;base64,"}},"materials":{"ID12":{"instanceTechnique":{"technique":"technique0","values":{"diffuse":[0.337255,0.337255,0.337255,1]}},"name":"Color_006"},"ID19":{"instanceTechnique":{"technique":"technique0","values":{"diffuse":[1,1,1,1]}},"name":"material"},"ID4":{"instanceTechnique":{"technique":"technique0","values":{"diffuse":[0,0,0.4,1]}},"name":"Color_I16"},"ID70":{"instanceTechnique":{"technique":"technique1","values":{}},"name":"edge_color000255"}},"meshes":{"ID10":{"name":"ID10","primitives":[{"attributes":{"NORMAL":"accessor_40","POSITION":"accessor_38"},"indices":"accessor_36","material":"ID12","primitive":4}]},"ID18":{"name":"ID18","primitives":[{"attributes":{"NORMAL":"accessor_60","POSITION":"accessor_58"},"indices":"accessor_56","material":"ID19","primitive":4}]},"ID2":{"name":"ID2","primitives":[{"attributes":{"NORMAL":"accessor_20","POSITION":"accessor_18"},"indices":"accessor_16","material":"ID4","primitive":4}]},"ID26":{"name":"ID26","primitives":[{"attributes":{"NORMAL":"accessor_80","POSITION":"accessor_78"},"indices":"accessor_76","material":"ID19","primitive":4}]},"ID32":{"name":"ID32","primitives":[{"attributes":{"NORMAL":"accessor_100","POSITION":"accessor_98"},"indices":"accessor_96","material":"ID4","primitive":4}]},"ID38":{"name":"ID38","primitives":[{"attributes":{"NORMAL":"accessor_120","POSITION":"accessor_118"},"indices":"accessor_116","material":"ID4","primitive":4}]},"ID44":{"name":"ID44","primitives":[{"attributes":{"NORMAL":"accessor_140","POSITION":"accessor_138"},"indices":"accessor_136","material":"ID4","primitive":4}]},"ID50":{"name":"ID50","primitives":[{"attributes":{"NORMAL":"accessor_160","POSITION":"accessor_158"},"indices":"accessor_156","material":"ID4","primitive":4}]},"ID56":{"name":"ID56","primitives":[{"attributes":{"NORMAL":"accessor_180","POSITION":"accessor_178"},"indices":"accessor_176","material":"ID19","primitive":4}]},"ID62":{"name":"ID62","primitives":[{"attributes":{"NORMAL":"accessor_200","POSITION":"accessor_198"},"indices":"accessor_196","material":"ID4","primitive":4}]},"ID68":{"name":"ID68","primitives":[{"attributes":{"POSITION":"accessor_212"},"indices":"accessor_210","material":"ID70","primitive":1}]}},"nodes":{"node_0":{"children":[],"matrix":[1,0,0,0,0,1,0,0,0,0,1,0,0,0,0,1],"meshes":["ID2","ID10","ID68","ID18","ID26","ID32","ID38","ID44","ID50","ID56","ID62"],"name":"SketchUp"},"node_1":{"children":["node_0"],"matrix":[1,0,0,0,0,0,-1,0,0,1,0,0,0,0,0,1],"name":"Y_UP_Transform"}},"programs":{"program_0":{"attributes":["a_normal","a_position"],"fragmentShader":"model0FS","vertexShader":"model0VS"},"program_1":{"attributes":["a_position"],"fragmentShader":"model1FS","vertexShader":"model1VS"}},"scene":"defaultScene","scenes":{"defaultScene":{"nodes":["node_1"]}},"shaders":{"model0FS":{"type":35632,"uri":"data:text/plain;base64,"},"model0VS":{"type":35633,"uri":"data:text/plain;base64,"},"model1FS":{"type":35632,"uri":"data:text/plain;base64,"},"model1VS":{"type":35633,"uri":"data:text/plain;base64,"}},"skins":{},"techniques":{"technique0":{"parameters":{"diffuse":{"type":35666},"modelViewMatrix":{"semantic":"MODELVIEW","type":35676},"normal":{"semantic":"NORMAL","type":35665},"normalMatrix":{"semantic":"MODELVIEWINVERSETRANSPOSE","type":35675},"position":{"semantic":"POSITION","type":35665},"projectionMatrix":{"semantic":"PROJECTION","type":35676}},"pass":"defaultPass","passes":{"defaultPass":{"details":{"commonProfile":{"extras":{"doubleSided":false},"lightingModel":"Lambert","parameters":["diffuse","modelViewMatrix","normalMatrix","projectionMatrix"]},"type":"COLLADA-1.4.1/commonProfile"},"instanceProgram":{"attributes":{"a_normal":"normal","a_position":"position"},"program":"program_0","uniforms":{"u_diffuse":"diffuse","u_modelViewMatrix":"modelViewMatrix","u_normalMatrix":"normalMatrix","u_projectionMatrix":"projectionMatrix"}},"states":{"enable":[2884,2929]}}}},"technique1":{"parameters":{"modelViewMatrix":{"semantic":"MODELVIEW","type":35676},"position":{"semantic":"POSITION","type":35665},"projectionMatrix":{"semantic":"PROJECTION","type":35676}},"pass":"defaultPass","passes":{"defaultPass":{"details":{"commonProfile":{"extras":{"doubleSided":false},"lightingModel":"Constant","parameters":["modelViewMatrix","projectionMatrix"]},"type":"COLLADA-1.4.1/commonProfile"},"instanceProgram":{"attributes":{"a_position":"position"},"program":"program_1","uniforms":{"u_modelViewMatrix":"modelViewMatrix","u_projectionMatrix":"projectionMatrix"}},"states":{"enable":[2884,2929]}}}}}}