<?xml version="1.0" encoding="UTF-8" standalone="no"?>
<svg
   xmlns:dc="http://purl.org/dc/elements/1.1/"
   xmlns:cc="http://creativecommons.org/ns#"
   xmlns:rdf="http://www.w3.org/1999/02/22-rdf-syntax-ns#"
   xmlns:svg="http://www.w3.org/2000/svg"
   xmlns="http://www.w3.org/2000/svg"
   xmlns:sodipodi="http://sodipodi.sourceforge.net/DTD/sodipodi-0.dtd"
   xmlns:inkscape="http://www.inkscape.org/namespaces/inkscape"
   version="1.1"
   id="Layer_1"
   x="0px"
   y="0px"
   width="100px"
   height="100px"
   viewBox="0 0 100 100"
   enable-background="new 0 0 100 100"
   xml:space="preserve"
   inkscape:version="0.48.4 r9939"
   sodipodi:docname="Wijk.svg"
   inkscape:export-filename="E:\Downloads\Wijk.png"
   inkscape:export-xdpi="21.6"
   inkscape:export-ydpi="21.6"><metadata
   id="metadata19"><rdf:RDF><cc:Work
       rdf:about=""><dc:format>image/svg+xml</dc:format><dc:type
         rdf:resource="http://purl.org/dc/dcmitype/StillImage" /><dc:title></dc:title></cc:Work></rdf:RDF></metadata><defs
   id="defs17" /><sodipodi:namedview
   pagecolor="#ffffff"
   bordercolor="#666666"
   borderopacity="1"
   objecttolerance="10"
   gridtolerance="10"
   guidetolerance="10"
   inkscape:pageopacity="0"
   inkscape:pageshadow="2"
   inkscape:window-width="640"
   inkscape:window-height="480"
   id="namedview15"
   showgrid="false"
   inkscape:zoom="2.36"
   inkscape:cx="50"
   inkscape:cy="50"
   inkscape:window-x="0"
   inkscape:window-y="0"
   inkscape:window-maximized="0"
   inkscape:current-layer="Layer_1" />
<g
   id="XMLID_29_"
   transform="matrix(1.1030435,0,0,1.2726452,-4.734576,-6.3014097)">
	<g
   id="g4">
		<g
   id="XMLID_68_">
			<g
   id="g7">
				<path
   d="m 80.539,56.692 v -3.059 h -2.655 v 3.059 h 2.655 z m 0,3.521 v -3.059 h -2.655 v 3.059 h 2.655 z m 0.77,0 h 2.654 v -3.059 h -2.654 v 3.059 z m 2.654,-3.521 v -3.059 h -2.654 v 3.059 h 2.654 z m 5.251,8.869 H 72.671 v -14.947 -0.616 -2.75 l 7.868,-5.617 4.02,2.809 h 0.231 v -2.771 h 3.347 l -0.038,5.232 7.194,5.021 -3.405,0.385 v 13.254 h -2.674 z"
   id="path9"
   inkscape:connector-curvature="0" />
				<path
   d="M 49.473,49.671 V 44.17 h -4.771 v 5.501 h 4.771 z m 0,6.329 V 50.498 H 44.702 V 56 h 4.771 z m 1.366,-5.502 V 56 H 55.59 V 50.498 H 50.839 z M 55.59,49.671 V 44.17 h -4.751 v 5.501 h 4.751 z m 20.371,-8.579 -6.117,0.692 V 65.56 h -4.79 -29.7 -4.771 V 41.092 h -6.944 l 25.834,-18.485 7.214,5.059 v -5.059 h 6.482 v 9.561 l 12.792,8.924 z"
   id="path11"
   inkscape:connector-curvature="0" />
				<path
   d="m 18.811,56.712 v -3.059 h -2.654 v 3.059 h 2.654 z m 0,3.519 v -3.059 h -2.654 v 3.059 h 2.654 z m 3.423,0 V 57.172 H 19.58 v 3.059 h 2.654 z m 0,-3.519 V 53.653 H 19.58 v 3.059 h 2.654 z m 5.213,-6.079 V 65.579 H 10.904 8.23 V 52.326 L 4.826,51.941 12.02,46.92 11.982,41.688 h 3.347 v 2.77 h 0.23 l 4.021,-2.808 7.867,5.616 v 2.751 0.616 z"
   id="path13"
   inkscape:connector-curvature="0" />
			</g>
		</g>
	</g>
</g>
</svg>